<svg xmlns="http://www.w3.org/2000/svg" viewBox="0 0 1400 1000">
  <defs>
    <style>
      text { font-family: sans-serif; }
      .title { font-size: 32px; font-weight: bold; }
      .label { font-size: 14px; font-weight: bold; }
      .small { font-size: 11px; }
      .tiny { font-size: 9px; }
      .arrow { stroke-width: 2.5; fill: none; marker-end: url(#arrowhead); }
      .boundary-line { stroke-width: 3; stroke-dasharray: 8,3; stroke: #ff9800; }
    </style>
    <marker id="arrowhead" markerWidth="10" markerHeight="10" refX="9" refY="3" orient="auto">
      <polygon points="0 0, 10 3, 0 6" fill="#333" />
    </marker>
  </defs>

  <text x="700" y="40" text-anchor="middle" class="title">9 DECOUPLING BOUNDARIES</text>

  <!-- BOUNDARY #1: SOURCE RING -->
  <g id="boundary1">
    <line x1="50" y1="100" x2="1350" y2="100" stroke="#f5f5f5" stroke-width="1"/>
    <text x="60" y="75" class="label" fill="#ff9800">[B#1] SOURCE RING</text>

    <rect x="50" y="100" width="250" height="120" fill="#2196f3" stroke="#1565c0" stroke-width="2" rx="6"/>
    <text x="175" y="140" text-anchor="middle" class="small" fill="white" font-weight="bold">RTMP ingest</text>
    <text x="175" y="155" text-anchor="middle" class="small" fill="white">+</text>
    <text x="175" y="170" text-anchor="middle" class="small" fill="white" font-weight="bold">SRT ingest</text>
    <text x="175" y="185" text-anchor="middle" class="small" fill="white">+</text>
    <text x="175" y="200" text-anchor="middle" class="small" fill="white" font-weight="bold">File ingest</text>

    <path d="M 300 160 L 380 160" class="arrow" stroke="#333"/>

    <rect x="380" y="100" width="200" height="120" fill="#fff9c4" stroke="#f57f17" stroke-width="3" rx="6"/>
    <text x="480" y="140" text-anchor="middle" class="label" fill="#333">SOURCE</text>
    <text x="480" y="160" text-anchor="middle" class="label" fill="#333">RING</text>
    <text x="480" y="180" text-anchor="middle" class="tiny" fill="#666">4096 slots</text>
    <text x="480" y="195" text-anchor="middle" class="tiny" fill="#666">lock-free SPMC</text>

    <path d="M 580 160 L 650 160" class="arrow" stroke="#333"/>

    <rect x="650" y="100" width="280" height="120" fill="#4caf50" stroke="#2e7d32" stroke-width="2" rx="6"/>
    <text x="790" y="140" text-anchor="middle" class="small" fill="white" font-weight="bold">RTMP egress</text>
    <text x="790" y="155" text-anchor="middle" class="small" fill="white">+</text>
    <text x="790" y="170" text-anchor="middle" class="small" fill="white" font-weight="bold">SRT/HLS/Record</text>
    <text x="790" y="185" text-anchor="middle" class="small" fill="white">+</text>
    <text x="790" y="200" text-anchor="middle" class="small" fill="white" font-weight="bold">Transcoder</text>

    <text x="380" y="235" class="tiny" fill="#666">Why: Multi-consumer fan-out, independent rates</text>
    <text x="380" y="250" class="tiny" fill="#666">Run-to-completion: ❌ Cannot (needs ring isolation)</text>
  </g>

  <!-- BOUNDARY #2-3: SRT PATH -->
  <g id="boundaries2-3">
    <line x1="50" y1="300" x2="1350" y2="300" stroke="#f5f5f5" stroke-width="1"/>
    <text x="60" y="275" class="label" fill="#ff9800">[B#2-3] SRT SENDER PATH</text>

    <rect x="50" y="300" width="180" height="100" fill="#2196f3" stroke="#1565c0" stroke-width="2" rx="6"/>
    <text x="140" y="340" text-anchor="middle" class="small" fill="white" font-weight="bold">SRT muxer</text>
    <text x="140" y="360" text-anchor="middle" class="tiny" fill="white">(async)</text>

    <path d="M 230 350 L 300 350" class="arrow" stroke="#333"/>

    <rect x="300" y="300" width="150" height="100" fill="#b39ddb" stroke="#512da8" stroke-width="2" rx="6"/>
    <text x="375" y="340" text-anchor="middle" class="small" fill="#333" font-weight="bold">TsChunk</text>
    <text x="375" y="360" text-anchor="middle" class="tiny" fill="#333">Ring [B#2]</text>

    <path d="M 450 350 L 520 350" class="arrow" stroke="#333"/>

    <rect x="520" y="300" width="180" height="100" fill="#ffccbc" stroke="#d84315" stroke-width="3" rx="6"/>
    <text x="610" y="340" text-anchor="middle" class="small" fill="#333" font-weight="bold">MemoryQueue</text>
    <text x="610" y="360" text-anchor="middle" class="tiny" fill="#333">Condvar [B#3]</text>

    <path d="M 700 350 L 770 350" class="arrow" stroke="#ff6f00"/>

    <rect x="770" y="300" width="180" height="100" fill="#ffb74d" stroke="#e65100" stroke-width="2" rx="6"/>
    <text x="860" y="340" text-anchor="middle" class="small" fill="#333" font-weight="bold">srt_send()</text>
    <text x="860" y="360" text-anchor="middle" class="tiny" fill="#333">(OS thread)</text>

    <path d="M 950" y="350 L 1020 350" class="arrow" stroke="#ff6f00"/>

    <rect x="1020" y="300" width="180" height="100" fill="#ffcc80" stroke="#ef6c00" stroke-width="2" rx="6"/>
    <text x="1110" y="340" text-anchor="middle" class="small" fill="#333" font-weight="bold">Network</text>
    <text x="1110" y="360" text-anchor="middle" class="tiny" fill="#333">socket</text>

    <text x="50" y="425" class="tiny" fill="#666">B#2: Shared muxer output → multiple SRT connections</text>
    <text x="50" y="440" class="tiny" fill="#666">B#3: MANDATORY: libsrt_send() blocks, must isolate from Tokio</text>
    <text x="50" y="455" class="tiny" fill="#666">Run-to-completion: ❌ Cannot (blocking I/O)</text>
  </g>

  <!-- BOUNDARY #4-5: TRANSCODING PATH -->
  <g id="boundaries4-5">
    <line x1="50" y1="500" x2="1350" y2="500" stroke="#f5f5f5" stroke-width="1"/>
    <text x="60" y="475" class="label" fill="#ff9800">[B#4-5] TRANSCODING PATH</text>

    <rect x="50" y="500" width="180" height="100" fill="#2196f3" stroke="#1565c0" stroke-width="2" rx="6"/>
    <text x="140" y="540" text-anchor="middle" class="small" fill="white" font-weight="bold">Feeder task</text>
    <text x="140" y="560" text-anchor="middle" class="tiny" fill="white">(Tokio)</text>

    <path d="M 230 550 L 300 550" class="arrow" stroke="#333"/>

    <rect x="300" y="500" width="180" height="100" fill="#ffccbc" stroke="#d84315" stroke-width="3" rx="6"/>
    <text x="390" y="540" text-anchor="middle" class="small" fill="#333" font-weight="bold">MemoryQueue</text>
    <text x="390" y="560" text-anchor="middle" class="tiny" fill="#333">[B#4]</text>

    <path d="M 480 550 L 550 550" class="arrow" stroke="#ff6f00"/>

    <rect x="550" y="500" width="180" height="100" fill="#ffb74d" stroke="#e65100" stroke-width="2" rx="6"/>
    <text x="640" y="540" text-anchor="middle" class="small" fill="#333" font-weight="bold">FFmpeg</text>
    <text x="640" y="560" text-anchor="middle" class="tiny" fill="#333">subprocess</text>

    <path d="M 730 550 L 800 550" class="arrow" stroke="#9c27b0"/>

    <rect x="800" y="500" width="180" height="100" fill="#f3e5f5" stroke="#7b1fa2" stroke-width="2" rx="6"/>
    <text x="890" y="540" text-anchor="middle" class="small" fill="#333" font-weight="bold">Output Ring</text>
    <text x="890" y="560" text-anchor="middle" class="tiny" fill="#333">[B#5]</text>

    <path d="M 980 550 L 1050 550" class="arrow" stroke="#333"/>

    <rect x="1050" y="500" width="180" height="100" fill="#4caf50" stroke="#2e7d32" stroke-width="2" rx="6"/>
    <text x="1140" y="540" text-anchor="middle" class="small" fill="white" font-weight="bold">Egress tasks</text>
    <text x="1140" y="560" text-anchor="middle" class="tiny" fill="white">(multi-consumer)</text>

    <text x="50" y="625" class="tiny" fill="#666">B#4: MANDATORY: FFmpeg blocking, isolate from Tokio runtime</text>
    <text x="50" y="640" class="tiny" fill="#666">B#5: Multi-consumer: transcoded packets to multiple egress at independent rates</text>
    <text x="50" y="655" class="tiny" fill="#666">Run-to-completion: ❌ Cannot (blocking subprocess + multi-consumer)</text>
  </g>

  <!-- BOUNDARY #6-9: SPECIAL PATHS -->
  <g id="boundaries6-9">
    <line x1="50" y1="700" x2="1350" y2="700" stroke="#f5f5f5" stroke-width="1"/>
    <text x="60" y="675" class="label" fill="#ff9800">[B#6-9] RECORDING, HLS, AUDIO, CODEC CONVERSION</text>

    <!-- Recording -->
    <g>
      <rect x="50" y="700" width="160" height="80" fill="#ffccbc" stroke="#d84315" stroke-width="2" rx="5"/>
      <text x="130" y="730" text-anchor="middle" class="tiny" fill="#333" font-weight="bold">MemoryQueue</text>
      <text x="130" y="745" text-anchor="middle" class="tiny" fill="#333">[B#9]</text>
      <path d="M 210 740 L 280 740" class="arrow" stroke="#ff6f00"/>
      <rect x="280" y="700" width="140" height="80" fill="#ffb74d" stroke="#e65100" stroke-width="2" rx="5"/>
      <text x="350" y="735" text-anchor="middle" class="tiny" fill="#333" font-weight="bold">fwrite()</text>
    </g>

    <!-- HLS (best case) -->
    <g>
      <rect x="480" y="700" width="160" height="80" fill="#c8e6c9" stroke="#2e7d32" stroke-width="2" rx="5"/>
      <text x="560" y="730" text-anchor="middle" class="tiny" fill="#333" font-weight="bold">Mutex</text>
      <text x="560" y="745" text-anchor="middle" class="tiny" fill="#333">[B#8]</text>
      <path d="M 640 740 L 710 740" class="arrow" stroke="#2e7d32"/>
      <rect x="710" y="700" width="140" height="80" fill="#a5d6a7" stroke="#388e3c" stroke-width="2" rx="5"/>
      <text x="780" y="735" text-anchor="middle" class="tiny" fill="#333" font-weight="bold">HTTP GET</text>
    </g>

    <!-- Audio routing -->
    <g>
      <rect x="910" y="700" width="160" height="80" fill="#b39ddb" stroke="#512da8" stroke-width="2" rx="5"/>
      <text x="990" y="730" text-anchor="middle" class="tiny" fill="#333" font-weight="bold">Audio rings</text>
      <text x="990" y="745" text-anchor="middle" class="tiny" fill="#333">[B#7]</text>
      <path d="M 1070 740 L 1140 740" class="arrow" stroke="#333"/>
      <rect x="1140" y="700" width="140" height="80" fill="#2196f3" stroke="#1565c0" stroke-width="2" rx="5"/>
      <text x="1210" y="735" text-anchor="middle" class="tiny" fill="white" font-weight="bold">Muxers</text>
    </g>

    <text x="50" y="820" class="tiny" fill="#666">B#6: Per-SRT-connection reader state isolation</text>
    <text x="50" y="835" class="tiny" fill="#666">B#7: Audio track routing (async packet filters)</text>
    <text x="50" y="850" class="tiny" fill="#666">B#8: HLS segment store (low contention ~0.17 Hz) ✅ BEST CASE</text>
    <text x="50" y="865" class="tiny" fill="#666">B#9: Recording disk I/O isolation (low-priority path)</text>
  </g>

  <!-- Key insights -->
  <g id="insights">
    <line x1="50" y1="910" x2="1350" y2="910" stroke="#f5f5f5" stroke-width="1"/>

    <rect x="50" y="920" width="420" height="60" fill="#ffe0b2" stroke="#e65100" stroke-width="1" rx="5"/>
    <text x="260" y="940" text-anchor="middle" class="small" fill="#333" font-weight="bold">❌ Cannot Remove</text>
    <text x="260" y="955" text-anchor="middle" class="tiny" fill="#333">B#1 (multi-egress), B#3 (libsrt), B#4 (FFmpeg), B#5 (transcoding)</text>

    <rect x="490" y="920" width="420" height="60" fill="#fff9c4" stroke="#f57f17" stroke-width="1" rx="5"/>
    <text x="700" y="940" text-anchor="middle" class="small" fill="#333" font-weight="bold">⚠️ Maybe Remove</text>
    <text x="700" y="955" text-anchor="middle" class="tiny" fill="#333">B#2 (single SRT only), B#6 (single consumer), B#7 (single audio)</text>

    <rect x="930" y="920" width="420" height="60" fill="#c8e6c9" stroke="#2e7d32" stroke-width="1" rx="5"/>
    <text x="1140" y="940" text-anchor="middle" class="small" fill="#333" font-weight="bold">✅ Well-Designed</text>
    <text x="1140" y="955" text-anchor="middle" class="tiny" fill="#333">B#8 (HLS ~0.17 Hz), B#9 (recording low-priority)</text>
  </g>
</svg>