<svg xmlns="http://www.w3.org/2000/svg" width="528" height="752" class="svgbob">
  <style>.svgbob line, .svgbob path, .svgbob circle, .svgbob rect, .svgbob polygon {
  stroke: black;
  stroke-width: 2;
  stroke-opacity: 1;
  fill-opacity: 1;
  stroke-linecap: round;
  stroke-linejoin: miter;
}

.svgbob text {
  white-space: pre;
  fill: black;
  font-family: Iosevka Fixed, monospace;
  font-size: 14px;
}

.svgbob rect.backdrop {
  stroke: none;
  fill: white;
}

.svgbob .broken {
  stroke-dasharray: 8;
}

.svgbob .filled {
  fill: black;
}

.svgbob .bg_filled {
  fill: white;
  stroke-width: 1;
}

.svgbob .nofill {
  fill: white;
}

.svgbob .end_marked_arrow {
  marker-end: url(#arrow);
}

.svgbob .start_marked_arrow {
  marker-start: url(#arrow);
}

.svgbob .end_marked_diamond {
  marker-end: url(#diamond);
}

.svgbob .start_marked_diamond {
  marker-start: url(#diamond);
}

.svgbob .end_marked_circle {
  marker-end: url(#circle);
}

.svgbob .start_marked_circle {
  marker-start: url(#circle);
}

.svgbob .end_marked_open_circle {
  marker-end: url(#open_circle);
}

.svgbob .start_marked_open_circle {
  marker-start: url(#open_circle);
}

.svgbob .end_marked_big_open_circle {
  marker-end: url(#big_open_circle);
}

.svgbob .start_marked_big_open_circle {
  marker-start: url(#big_open_circle);
}

</style>
  <defs>
    <marker id="arrow" viewBox="-2 -2 8 8" refX="4" refY="2" markerWidth="7" markerHeight="7" orient="auto-start-reverse">
      <polygon points="0,0 0,4 4,2 0,0"></polygon>
    </marker>
    <marker id="diamond" viewBox="-2 -2 8 8" refX="4" refY="2" markerWidth="7" markerHeight="7" orient="auto-start-reverse">
      <polygon points="0,2 2,0 4,2 2,4 0,2"></polygon>
    </marker>
    <marker id="circle" viewBox="0 0 8 8" refX="4" refY="4" markerWidth="7" markerHeight="7" orient="auto-start-reverse">
      <circle cx="4" cy="4" r="2" class="filled"></circle>
    </marker>
    <marker id="open_circle" viewBox="0 0 8 8" refX="4" refY="4" markerWidth="7" markerHeight="7" orient="auto-start-reverse">
      <circle cx="4" cy="4" r="2" class="bg_filled"></circle>
    </marker>
    <marker id="big_open_circle" viewBox="0 0 8 8" refX="4" refY="4" markerWidth="7" markerHeight="7" orient="auto-start-reverse">
      <circle cx="4" cy="4" r="3" class="bg_filled"></circle>
    </marker>
  </defs>
  <rect class="backdrop" x="0" y="0" width="528" height="752"></rect>
  <rect x="36" y="472" width="112" height="256" class="solid nofill" rx="0"></rect>
  <rect x="204" y="616" width="120" height="96" class="solid nofill" rx="0"></rect>
  <text x="218" y="636" >Read</text>
  <text x="258" y="636" >from</text>
  <text x="218" y="652" >HLS</text>
  <line x1="240" y1="656" x2="248" y2="656" class="solid"></line>
  <text x="250" y="652" >STORE</text>
  <text x="218" y="668" >Send</text>
  <text x="258" y="668" >m3u8</text>
  <text x="298" y="668" >+</text>
  <text x="218" y="684" >.ts</text>
  <text x="250" y="684" >chunks</text>
  <text x="218" y="700" >o</text>
  <polygon points="224,692 232,696 228,688" class="filled"></polygon>
  <text x="234" y="700" >er</text>
  <text x="258" y="700" >HTTP</text>
  <text x="18" y="28" >SOURCE</text>
  <text x="74" y="28" >RING</text>
  <path d="M 120,16 A 16,16 0,0,0 120,32" class="nofill"></path>
  <text x="122" y="28" >all</text>
  <text x="154" y="28" >proto</text>
  <path d="M 192,16 A 16,16 0,0,1 192,32" class="nofill"></path>
  <polygon points="104,68 112,68 108,80" class="filled"></polygon>
  <text x="50" y="108" >HLS</text>
  <text x="82" y="108" >SEGMENTER</text>
  <text x="162" y="108" >TASK</text>
  <path d="M 56,112 A 16,16 0,0,0 56,128" class="nofill"></path>
  <text x="58" y="124" >1</text>
  <text x="74" y="124" >per</text>
  <text x="106" y="124" >pipeline</text>
  <path d="M 168,112 A 16,16 0,0,1 168,128" class="nofill"></path>
  <polygon points="64,196 72,196 68,208" class="filled"></polygon>
  <path d="M 88,192 A 16,16 0,0,0 88,208" class="nofill"></path>
  <text x="90" y="204" >Per</text>
  <text x="122" y="204" >packet</text>
  <path d="M 168,192 A 16,16 0,0,1 168,208" class="nofill"></path>
  <polygon points="216,196 224,196 220,208" class="filled"></polygon>
  <path d="M 240,192 A 16,16 0,0,0 240,208" class="nofill"></path>
  <text x="242" y="204" >Per</text>
  <text x="274" y="204" >segment:</text>
  <text x="34" y="236" >video</text>
  <line x1="72" y1="240" x2="80" y2="240" class="solid"></line>
  <text x="82" y="236" >for</text>
  <line x1="104" y1="240" x2="112" y2="240" class="solid"></line>
  <text x="114" y="236" >ts</text>
  <text x="194" y="236" >Mutex</text>
  <text x="242" y="236" >lock</text>
  <path d="M 40,240 A 16,16 0,0,0 40,256" class="nofill"></path>
  <text x="42" y="252" >scratch</text>
  <text x="106" y="252" >buf</text>
  <path d="M 128,240 A 16,16 0,0,1 128,256" class="nofill"></path>
  <path d="M 200,240 A 16,16 0,0,0 200,256" class="nofill"></path>
  <text x="202" y="252" >segment</text>
  <text x="34" y="268" >TS</text>
  <text x="58" y="268" >MUXER</text>
  <text x="202" y="268" >complete</text>
  <path d="M 264,256 A 16,16 0,0,1 264,272" class="nofill"></path>
  <path d="M 40,272 A 16,16 0,0,0 40,288" class="nofill"></path>
  <line x1="40" y1="280" x2="48" y2="280" class="broken"></line>
  <line x1="96" y1="272" x2="88" y2="288" class="solid"></line>
  <text x="98" y="284" >pkt</text>
  <path d="M 120,272 A 16,16 0,0,1 120,288" class="nofill"></path>
  <text x="34" y="300" >Accumulate</text>
  <text x="34" y="316" >TS</text>
  <text x="58" y="316" >bytes</text>
  <polygon points="232,308 240,308 236,320" class="filled"></polygon>
  <text x="194" y="348" >HLS</text>
  <line x1="216" y1="352" x2="224" y2="352" class="solid"></line>
  <text x="226" y="348" >STORE</text>
  <path d="M 280,336 A 16,16 0,0,0 280,352" class="nofill"></path>
  <text x="282" y="348" >Mutex</text>
  <path d="M 320,336 A 16,16 0,0,1 320,352" class="nofill"></path>
  <text x="194" y="364" >SegmentVecDeque</text>
  <text x="194" y="380" >in</text>
  <text x="218" y="380" >memory</text>
  <polygon points="72,452 80,452 76,464" class="filled"></polygon>
  <polygon points="264,452 272,452 268,464" class="filled"></polygon>
  <text x="218" y="492" >HTTP</text>
  <text x="258" y="492" >GET</text>
  <line x1="224" y1="496" x2="216" y2="512" class="solid"></line>
  <text x="226" y="508" >playlist.</text>
  <text x="218" y="524" >m3u8</text>
  <text x="218" y="540" >Handlers</text>
  <path d="M 224,544 A 16,16 0,0,0 224,560" class="nofill"></path>
  <text x="226" y="556" >async</text>
  <path d="M 264,544 A 16,16 0,0,1 264,560" class="nofill"></path>
  <polygon points="256,596 264,596 260,608" class="filled"></polygon>
  <text x="346" y="204" >on</text>
  <text x="370" y="204" >keyframe</text>
  <text x="442" y="204" >+</text>
  <text x="458" y="204" >min</text>
  <line x1="480" y1="208" x2="488" y2="208" class="solid"></line>
  <text x="490" y="204" >dur</text>
  <path d="M 512,192 A 16,16 0,0,1 512,208" class="nofill"></path>
  <g>
    <line x1="4" y1="8" x2="220" y2="8" class="solid"></line>
    <line x1="4" y1="8" x2="4" y2="40" class="solid"></line>
    <line x1="220" y1="8" x2="220" y2="40" class="solid"></line>
    <line x1="4" y1="40" x2="220" y2="40" class="solid"></line>
    <line x1="108" y1="40" x2="108" y2="68" class="solid"></line>
  </g>
  <g>
    <line x1="36" y1="88" x2="220" y2="88" class="solid"></line>
    <line x1="36" y1="88" x2="36" y2="136" class="solid"></line>
    <line x1="220" y1="88" x2="220" y2="136" class="solid"></line>
    <line x1="36" y1="136" x2="220" y2="136" class="solid"></line>
    <line x1="140" y1="136" x2="140" y2="168" class="solid"></line>
    <line x1="68" y1="168" x2="220" y2="168" class="solid"></line>
    <line x1="68" y1="168" x2="68" y2="196" class="solid"></line>
    <line x1="220" y1="168" x2="220" y2="196" class="solid"></line>
  </g>
  <g>
    <line x1="28" y1="216" x2="140" y2="216" class="solid"></line>
    <line x1="28" y1="216" x2="28" y2="328" class="solid"></line>
    <line x1="140" y1="216" x2="140" y2="328" class="solid"></line>
    <line x1="28" y1="328" x2="140" y2="328" class="solid"></line>
    <line x1="76" y1="328" x2="76" y2="452" class="solid"></line>
    <line x1="180" y1="328" x2="364" y2="328" class="solid"></line>
    <line x1="180" y1="328" x2="180" y2="392" class="solid"></line>
    <line x1="364" y1="328" x2="364" y2="392" class="solid"></line>
    <line x1="180" y1="392" x2="364" y2="392" class="solid"></line>
    <line x1="268" y1="392" x2="268" y2="452" class="solid"></line>
    <line x1="76" y1="424" x2="268" y2="424" class="solid"></line>
  </g>
  <g>
    <line x1="180" y1="216" x2="300" y2="216" class="solid"></line>
    <line x1="180" y1="216" x2="180" y2="280" class="solid"></line>
    <line x1="300" y1="216" x2="300" y2="280" class="solid"></line>
    <line x1="180" y1="280" x2="300" y2="280" class="solid"></line>
    <line x1="236" y1="280" x2="236" y2="308" class="solid"></line>
  </g>
  <g>
    <text x="50" y="284">0.6µ</text>
    <text x="82" y="284">s</text>
  </g>
  <g>
    <line x1="204" y1="472" x2="316" y2="472" class="solid"></line>
    <line x1="204" y1="472" x2="204" y2="568" class="solid"></line>
    <line x1="316" y1="472" x2="316" y2="568" class="solid"></line>
    <line x1="204" y1="568" x2="316" y2="568" class="solid"></line>
    <line x1="260" y1="568" x2="260" y2="596" class="solid"></line>
  </g>
</svg>