<svg xmlns="http://www.w3.org/2000/svg" width="528" height="544" class="svgbob">
  <style>.svgbob line, .svgbob path, .svgbob circle, .svgbob rect, .svgbob polygon {
  stroke: black;
  stroke-width: 2;
  stroke-opacity: 1;
  fill-opacity: 1;
  stroke-linecap: round;
  stroke-linejoin: miter;
}

.svgbob text {
  white-space: pre;
  fill: black;
  font-family: Iosevka Fixed, monospace;
  font-size: 14px;
}

.svgbob rect.backdrop {
  stroke: none;
  fill: white;
}

.svgbob .broken {
  stroke-dasharray: 8;
}

.svgbob .filled {
  fill: black;
}

.svgbob .bg_filled {
  fill: white;
  stroke-width: 1;
}

.svgbob .nofill {
  fill: white;
}

.svgbob .end_marked_arrow {
  marker-end: url(#arrow);
}

.svgbob .start_marked_arrow {
  marker-start: url(#arrow);
}

.svgbob .end_marked_diamond {
  marker-end: url(#diamond);
}

.svgbob .start_marked_diamond {
  marker-start: url(#diamond);
}

.svgbob .end_marked_circle {
  marker-end: url(#circle);
}

.svgbob .start_marked_circle {
  marker-start: url(#circle);
}

.svgbob .end_marked_open_circle {
  marker-end: url(#open_circle);
}

.svgbob .start_marked_open_circle {
  marker-start: url(#open_circle);
}

.svgbob .end_marked_big_open_circle {
  marker-end: url(#big_open_circle);
}

.svgbob .start_marked_big_open_circle {
  marker-start: url(#big_open_circle);
}

</style>
  <defs>
    <marker id="arrow" viewBox="-2 -2 8 8" refX="4" refY="2" markerWidth="7" markerHeight="7" orient="auto-start-reverse">
      <polygon points="0,0 0,4 4,2 0,0"></polygon>
    </marker>
    <marker id="diamond" viewBox="-2 -2 8 8" refX="4" refY="2" markerWidth="7" markerHeight="7" orient="auto-start-reverse">
      <polygon points="0,2 2,0 4,2 2,4 0,2"></polygon>
    </marker>
    <marker id="circle" viewBox="0 0 8 8" refX="4" refY="4" markerWidth="7" markerHeight="7" orient="auto-start-reverse">
      <circle cx="4" cy="4" r="2" class="filled"></circle>
    </marker>
    <marker id="open_circle" viewBox="0 0 8 8" refX="4" refY="4" markerWidth="7" markerHeight="7" orient="auto-start-reverse">
      <circle cx="4" cy="4" r="2" class="bg_filled"></circle>
    </marker>
    <marker id="big_open_circle" viewBox="0 0 8 8" refX="4" refY="4" markerWidth="7" markerHeight="7" orient="auto-start-reverse">
      <circle cx="4" cy="4" r="3" class="bg_filled"></circle>
    </marker>
  </defs>
  <rect class="backdrop" x="0" y="0" width="528" height="544"></rect>
  <rect x="4" y="8" width="136" height="64" class="solid nofill" rx="0"></rect>
  <text x="18" y="28" >RTMP</text>
  <line x1="56" y1="16" x2="48" y2="32" class="solid"></line>
  <text x="58" y="28" >SRT</text>
  <text x="18" y="44" >INGEST</text>
  <path d="M 24,48 A 16,16 0,0,0 24,64" class="nofill"></path>
  <text x="26" y="60" >demux</text>
  <path d="M 64,48 A 16,16 0,0,1 64,64" class="nofill"></path>
  <rect x="116" y="264" width="80" height="64" class="solid nofill" rx="0"></rect>
  <text x="130" y="284" >TCP</text>
  <text x="130" y="300" >SOCKET</text>
  <path d="M 136,304 A 16,16 0,0,0 136,320" class="nofill"></path>
  <text x="138" y="316" >egress</text>
  <path d="M 184,304 A 16,16 0,0,1 184,320" class="nofill"></path>
  <rect x="268" y="280" width="88" height="64" class="solid nofill" rx="0"></rect>
  <text x="282" y="300" >SRT</text>
  <text x="282" y="316" >SOCKET</text>
  <path d="M 288,320 A 16,16 0,0,0 288,336" class="nofill"></path>
  <text x="290" y="332" >egress</text>
  <path d="M 336,320 A 16,16 0,0,1 336,336" class="nofill"></path>
  <rect x="412" y="280" width="88" height="48" class="solid nofill" rx="0"></rect>
  <text x="426" y="300" >HTTP</text>
  <text x="426" y="316" >CLIENTS</text>
  <rect x="196" y="488" width="112" height="32" class="solid nofill" rx="0"></rect>
  <text x="210" y="508" >DISK</text>
  <text x="250" y="508" >FILE</text>
  <line x1="144" y1="24" x2="168" y2="24" class="solid"></line>
  <polygon points="168,20 176,24 168,28" class="filled"></polygon>
  <text x="194" y="28" >SOURCE</text>
  <text x="250" y="28" >RING</text>
  <path d="M 200,32 A 16,16 0,0,0 200,48" class="nofill"></path>
  <text x="202" y="44" >multi</text>
  <line x1="240" y1="40" x2="248" y2="40" class="solid"></line>
  <text x="250" y="44" >consumer</text>
  <path d="M 312,32 A 16,16 0,0,1 312,48" class="nofill"></path>
  <polygon points="160,116 168,116 164,128" class="filled"></polygon>
  <polygon points="248,116 256,116 252,128" class="filled"></polygon>
  <polygon points="336,116 344,116 340,128" class="filled"></polygon>
  <polygon points="448,116 456,116 452,128" class="filled"></polygon>
  <text x="98" y="156" >RTMP</text>
  <text x="138" y="156" >EGRESS</text>
  <text x="250" y="156" >SRT</text>
  <text x="282" y="156" >EGRESS</text>
  <text x="410" y="156" >HLS</text>
  <text x="442" y="156" >SEGMENTER</text>
  <text x="98" y="188" >FLV</text>
  <text x="130" y="188" >mux</text>
  <text x="250" y="188" >TS</text>
  <text x="274" y="188" >mux</text>
  <text x="410" y="188" >TsMuxer</text>
  <text x="98" y="204" >Payload</text>
  <text x="162" y="204" >clone</text>
  <text x="250" y="204" >TsChunkRing</text>
  <text x="410" y="204" >Accum</text>
  <text x="458" y="204" >buf</text>
  <text x="250" y="220" >MemoryQueue</text>
  <text x="410" y="220" >Mutex</text>
  <text x="250" y="236" >srt</text>
  <line x1="272" y1="240" x2="280" y2="240" class="solid"></line>
  <text x="282" y="236" >send</text>
  <polygon points="152,244 160,244 156,256" class="filled"></polygon>
  <polygon points="304,260 312,260 308,272" class="filled"></polygon>
  <polygon points="448,260 456,260 452,272" class="filled"></polygon>
  <text x="178" y="396" >RECORDING</text>
  <text x="178" y="428" >MemoryQueue</text>
  <text x="178" y="444" >fwrite</text>
  <polygon points="232,468 240,468 236,480" class="filled"></polygon>
  <g>
    <line x1="180" y1="8" x2="324" y2="8" class="solid"></line>
    <line x1="180" y1="8" x2="180" y2="56" class="solid"></line>
    <line x1="324" y1="8" x2="324" y2="56" class="solid"></line>
    <line x1="180" y1="56" x2="324" y2="56" class="solid"></line>
    <line x1="252" y1="56" x2="252" y2="116" class="solid"></line>
  </g>
  <g>
    <line x1="164" y1="88" x2="452" y2="88" class="solid"></line>
    <line x1="164" y1="88" x2="164" y2="116" class="solid"></line>
    <line x1="340" y1="88" x2="340" y2="116" class="solid"></line>
    <line x1="452" y1="88" x2="452" y2="116" class="solid"></line>
  </g>
  <g>
    <line x1="84" y1="136" x2="220" y2="136" class="solid"></line>
    <line x1="84" y1="136" x2="84" y2="216" class="solid"></line>
    <line x1="220" y1="136" x2="220" y2="216" class="solid"></line>
    <line x1="84" y1="168" x2="220" y2="168" class="solid"></line>
    <line x1="84" y1="216" x2="220" y2="216" class="solid"></line>
    <line x1="156" y1="216" x2="156" y2="244" class="solid"></line>
  </g>
  <g>
    <line x1="236" y1="136" x2="380" y2="136" class="solid"></line>
    <line x1="236" y1="136" x2="236" y2="248" class="solid"></line>
    <line x1="380" y1="136" x2="380" y2="248" class="solid"></line>
    <line x1="236" y1="168" x2="380" y2="168" class="solid"></line>
    <line x1="236" y1="248" x2="380" y2="248" class="solid"></line>
    <line x1="308" y1="248" x2="308" y2="260" class="solid"></line>
  </g>
  <g>
    <line x1="396" y1="136" x2="516" y2="136" class="solid"></line>
    <line x1="396" y1="136" x2="396" y2="232" class="solid"></line>
    <line x1="516" y1="136" x2="516" y2="232" class="solid"></line>
    <line x1="396" y1="168" x2="516" y2="168" class="solid"></line>
    <line x1="396" y1="232" x2="516" y2="232" class="solid"></line>
    <line x1="452" y1="232" x2="452" y2="260" class="solid"></line>
  </g>
  <g>
    <path d="M 320,224 A 16,16 0,0,0 320,240" class="nofill"></path>
    <path d="M 320,224 A 16,16 0,0,1 320,240" class="nofill"></path>
  </g>
  <g>
    <line x1="164" y1="376" x2="332" y2="376" class="solid"></line>
    <line x1="164" y1="376" x2="164" y2="456" class="solid"></line>
    <line x1="332" y1="376" x2="332" y2="456" class="solid"></line>
    <line x1="164" y1="408" x2="332" y2="408" class="solid"></line>
    <line x1="164" y1="456" x2="332" y2="456" class="solid"></line>
    <line x1="236" y1="456" x2="236" y2="468" class="solid"></line>
  </g>
  <g>
    <path d="M 232,432 A 16,16 0,0,0 232,448" class="nofill"></path>
    <path d="M 232,432 A 16,16 0,0,1 232,448" class="nofill"></path>
  </g>
</svg>