<svg xmlns="http://www.w3.org/2000/svg" width="488" height="832" class="svgbob">
  <style>.svgbob line, .svgbob path, .svgbob circle, .svgbob rect, .svgbob polygon {
  stroke: black;
  stroke-width: 2;
  stroke-opacity: 1;
  fill-opacity: 1;
  stroke-linecap: round;
  stroke-linejoin: miter;
}

.svgbob text {
  white-space: pre;
  fill: black;
  font-family: Iosevka Fixed, monospace;
  font-size: 14px;
}

.svgbob rect.backdrop {
  stroke: none;
  fill: white;
}

.svgbob .broken {
  stroke-dasharray: 8;
}

.svgbob .filled {
  fill: black;
}

.svgbob .bg_filled {
  fill: white;
  stroke-width: 1;
}

.svgbob .nofill {
  fill: white;
}

.svgbob .end_marked_arrow {
  marker-end: url(#arrow);
}

.svgbob .start_marked_arrow {
  marker-start: url(#arrow);
}

.svgbob .end_marked_diamond {
  marker-end: url(#diamond);
}

.svgbob .start_marked_diamond {
  marker-start: url(#diamond);
}

.svgbob .end_marked_circle {
  marker-end: url(#circle);
}

.svgbob .start_marked_circle {
  marker-start: url(#circle);
}

.svgbob .end_marked_open_circle {
  marker-end: url(#open_circle);
}

.svgbob .start_marked_open_circle {
  marker-start: url(#open_circle);
}

.svgbob .end_marked_big_open_circle {
  marker-end: url(#big_open_circle);
}

.svgbob .start_marked_big_open_circle {
  marker-start: url(#big_open_circle);
}

</style>
  <defs>
    <marker id="arrow" viewBox="-2 -2 8 8" refX="4" refY="2" markerWidth="7" markerHeight="7" orient="auto-start-reverse">
      <polygon points="0,0 0,4 4,2 0,0"></polygon>
    </marker>
    <marker id="diamond" viewBox="-2 -2 8 8" refX="4" refY="2" markerWidth="7" markerHeight="7" orient="auto-start-reverse">
      <polygon points="0,2 2,0 4,2 2,4 0,2"></polygon>
    </marker>
    <marker id="circle" viewBox="0 0 8 8" refX="4" refY="4" markerWidth="7" markerHeight="7" orient="auto-start-reverse">
      <circle cx="4" cy="4" r="2" class="filled"></circle>
    </marker>
    <marker id="open_circle" viewBox="0 0 8 8" refX="4" refY="4" markerWidth="7" markerHeight="7" orient="auto-start-reverse">
      <circle cx="4" cy="4" r="2" class="bg_filled"></circle>
    </marker>
    <marker id="big_open_circle" viewBox="0 0 8 8" refX="4" refY="4" markerWidth="7" markerHeight="7" orient="auto-start-reverse">
      <circle cx="4" cy="4" r="3" class="bg_filled"></circle>
    </marker>
  </defs>
  <rect class="backdrop" x="0" y="0" width="488" height="832"></rect>
  <rect x="188" y="712" width="120" height="48" class="solid nofill" rx="0"></rect>
  <text x="202" y="732" >RTMP</text>
  <text x="242" y="732" >SOCKET</text>
  <path d="M 208,736 A 16,16 0,0,0 208,752" class="nofill"></path>
  <text x="210" y="748" >egress</text>
  <path d="M 256,736 A 16,16 0,0,1 256,752" class="nofill"></path>
  <rect x="52" y="760" width="120" height="48" class="solid nofill" rx="0"></rect>
  <text x="66" y="780" >SRT</text>
  <text x="98" y="780" >SOCKET</text>
  <path d="M 72,784 A 16,16 0,0,0 72,800" class="nofill"></path>
  <text x="74" y="796" >egress</text>
  <path d="M 120,784 A 16,16 0,0,1 120,800" class="nofill"></path>
  <text x="18" y="28" >SOURCE</text>
  <text x="74" y="28" >RING</text>
  <path d="M 120,16 A 16,16 0,0,0 120,32" class="nofill"></path>
  <text x="122" y="28" >also</text>
  <text x="162" y="28" >feeds</text>
  <text x="210" y="28" >HLS,</text>
  <text x="250" y="28" >Recording</text>
  <path d="M 320,16 A 16,16 0,0,1 320,32" class="nofill"></path>
  <polygon points="104,68 112,68 108,80" class="filled"></polygon>
  <text x="74" y="108" >TRANSCODER</text>
  <text x="162" y="108" >FEEDER</text>
  <path d="M 80,112 A 16,16 0,0,0 80,128" class="nofill"></path>
  <text x="82" y="124" >pull</text>
  <line x1="112" y1="128" x2="120" y2="128" class="solid"></line>
  <text x="122" y="124" >burst</text>
  <path d="M 160,112 A 16,16 0,0,1 160,128" class="nofill"></path>
  <polygon points="144,164 152,164 148,176" class="filled"></polygon>
  <text x="74" y="204" >TS</text>
  <text x="98" y="204" >MUXER</text>
  <text x="74" y="220" >MemoryQueue</text>
  <polygon points="144,260 152,260 148,272" class="filled"></polygon>
  <text x="74" y="300" >FFMPEG</text>
  <text x="130" y="300" >SUBPROCESS</text>
  <text x="74" y="316" >scale</text>
  <line x1="112" y1="310" x2="120" y2="310" class="solid"></line>
  <line x1="112" y1="314" x2="120" y2="314" class="solid"></line>
  <text x="122" y="316" >1280:720</text>
  <text x="74" y="332" >libx264</text>
  <line x1="136" y1="320" x2="128" y2="336" class="solid"></line>
  <text x="138" y="332" >libx265</text>
  <polygon points="144,372 152,372 148,384" class="filled"></polygon>
  <text x="74" y="412" >FFMPEG</text>
  <text x="130" y="412" >STDOUT</text>
  <text x="74" y="428" >TS</text>
  <text x="98" y="428" >DEMUXER</text>
  <polygon points="144,468 152,468 148,480" class="filled"></polygon>
  <text x="66" y="508" >OUTPUT</text>
  <text x="122" y="508" >RING</text>
  <path d="M 168,496 A 16,16 0,0,0 168,512" class="nofill"></path>
  <text x="170" y="508" >4096</text>
  <text x="210" y="508" >slots</text>
  <path d="M 248,496 A 16,16 0,0,1 248,512" class="nofill"></path>
  <path d="M 72,512 A 16,16 0,0,0 72,528" class="nofill"></path>
  <text x="74" y="524" >multi</text>
  <line x1="112" y1="520" x2="120" y2="520" class="solid"></line>
  <text x="122" y="524" >consumer</text>
  <text x="194" y="524" >SRT+RTMP</text>
  <path d="M 256,512 A 16,16 0,0,1 256,528" class="nofill"></path>
  <polygon points="104,564 112,564 108,576" class="filled"></polygon>
  <polygon points="224,564 232,564 228,576" class="filled"></polygon>
  <text x="66" y="604" >SRT</text>
  <text x="98" y="604" >EGRESS</text>
  <text x="202" y="604" >RTMP</text>
  <text x="242" y="604" >EGRESS</text>
  <text x="66" y="636" >TS</text>
  <text x="90" y="636" >MUXER</text>
  <text x="202" y="636" >AVCC</text>
  <text x="242" y="636" >wrap</text>
  <text x="66" y="652" >TsChunkRing</text>
  <text x="202" y="652" >FLV</text>
  <text x="234" y="652" >mux</text>
  <text x="66" y="668" >MemoryQueue</text>
  <text x="66" y="684" >srt</text>
  <line x1="88" y1="688" x2="96" y2="688" class="solid"></line>
  <text x="98" y="684" >send</text>
  <path d="M 72,688 A 16,16 0,0,0 72,704" class="nofill"></path>
  <text x="74" y="700" >OS</text>
  <text x="98" y="700" >thread</text>
  <path d="M 144,688 A 16,16 0,0,1 144,704" class="nofill"></path>
  <polygon points="240,692 248,692 244,704" class="filled"></polygon>
  <polygon points="104,740 112,740 108,752" class="filled"></polygon>
  <g>
    <line x1="4" y1="8" x2="476" y2="8" class="solid"></line>
    <line x1="4" y1="8" x2="4" y2="40" class="solid"></line>
    <line x1="476" y1="8" x2="476" y2="40" class="solid"></line>
    <line x1="4" y1="40" x2="476" y2="40" class="solid"></line>
    <line x1="108" y1="40" x2="108" y2="68" class="solid"></line>
  </g>
  <g>
    <line x1="60" y1="88" x2="244" y2="88" class="solid"></line>
    <line x1="60" y1="88" x2="60" y2="136" class="solid"></line>
    <line x1="244" y1="88" x2="244" y2="136" class="solid"></line>
    <line x1="60" y1="136" x2="244" y2="136" class="solid"></line>
    <line x1="148" y1="136" x2="148" y2="164" class="solid"></line>
  </g>
  <g>
    <line x1="60" y1="184" x2="244" y2="184" class="solid"></line>
    <line x1="60" y1="184" x2="60" y2="232" class="solid"></line>
    <line x1="244" y1="184" x2="244" y2="232" class="solid"></line>
    <line x1="60" y1="232" x2="244" y2="232" class="solid"></line>
    <line x1="148" y1="232" x2="148" y2="260" class="solid"></line>
  </g>
  <g>
    <line x1="60" y1="280" x2="244" y2="280" class="solid"></line>
    <line x1="60" y1="280" x2="60" y2="344" class="solid"></line>
    <line x1="244" y1="280" x2="244" y2="344" class="solid"></line>
    <line x1="60" y1="344" x2="244" y2="344" class="solid"></line>
    <line x1="148" y1="344" x2="148" y2="372" class="solid"></line>
  </g>
  <g>
    <line x1="60" y1="392" x2="244" y2="392" class="solid"></line>
    <line x1="60" y1="392" x2="60" y2="440" class="solid"></line>
    <line x1="244" y1="392" x2="244" y2="440" class="solid"></line>
    <line x1="60" y1="440" x2="244" y2="440" class="solid"></line>
    <line x1="148" y1="440" x2="148" y2="468" class="solid"></line>
  </g>
  <g>
    <line x1="52" y1="488" x2="292" y2="488" class="solid"></line>
    <line x1="52" y1="488" x2="52" y2="536" class="solid"></line>
    <line x1="292" y1="488" x2="292" y2="536" class="solid"></line>
    <line x1="52" y1="536" x2="292" y2="536" class="solid"></line>
    <line x1="108" y1="536" x2="108" y2="564" class="solid"></line>
    <line x1="228" y1="536" x2="228" y2="564" class="solid"></line>
  </g>
  <g>
    <line x1="52" y1="584" x2="164" y2="584" class="solid"></line>
    <line x1="52" y1="584" x2="52" y2="712" class="solid"></line>
    <line x1="164" y1="584" x2="164" y2="712" class="solid"></line>
    <line x1="52" y1="616" x2="164" y2="616" class="solid"></line>
    <line x1="52" y1="712" x2="164" y2="712" class="solid"></line>
    <line x1="108" y1="712" x2="108" y2="740" class="solid"></line>
  </g>
  <g>
    <line x1="188" y1="584" x2="308" y2="584" class="solid"></line>
    <line x1="188" y1="584" x2="188" y2="664" class="solid"></line>
    <line x1="308" y1="584" x2="308" y2="664" class="solid"></line>
    <line x1="188" y1="616" x2="308" y2="616" class="solid"></line>
    <line x1="188" y1="664" x2="308" y2="664" class="solid"></line>
    <line x1="244" y1="664" x2="244" y2="692" class="solid"></line>
  </g>
  <g>
    <path d="M 136,672 A 16,16 0,0,0 136,688" class="nofill"></path>
    <path d="M 136,672 A 16,16 0,0,1 136,688" class="nofill"></path>
  </g>
</svg>