<svg xmlns="http://www.w3.org/2000/svg" viewBox="0 0 1200 800">
  <defs>
    <style>
      text { font-family: sans-serif; }
      .title { font-size: 32px; font-weight: bold; }
      .label { font-size: 14px; font-weight: bold; }
      .small { font-size: 11px; }
      .arrow { stroke-width: 2.5; fill: none; marker-end: url(#arrowhead); }
      .decoupling { stroke-width: 3; stroke-dasharray: 8,3; }
    </style>
    <marker id="arrowhead" markerWidth="10" markerHeight="10" refX="9" refY="3" orient="auto">
      <polygon points="0 0, 10 3, 0 6" fill="#333" />
    </marker>
  </defs>

  <text x="600" y="40" text-anchor="middle" class="title">RESTREAM MEDIA PIPELINE</text>

  <!-- INGRESS: Three input sources at top -->
  <g id="ingress">
    <!-- RTMP -->
    <rect x="80" y="80" width="140" height="90" fill="#4caf50" stroke="#1b5e20" stroke-width="2" rx="8"/>
    <text x="150" y="115" text-anchor="middle" class="label" fill="white">RTMP</text>
    <text x="150" y="135" text-anchor="middle" class="small" fill="white">TCP+FLV</text>
    <text x="150" y="150" text-anchor="middle" class="small" fill="white">demux</text>

    <!-- SRT -->
    <rect x="380" y="80" width="140" height="90" fill="#4caf50" stroke="#1b5e20" stroke-width="2" rx="8"/>
    <text x="450" y="115" text-anchor="middle" class="label" fill="white">SRT</text>
    <text x="450" y="135" text-anchor="middle" class="small" fill="white">UDP+TS</text>
    <text x="450" y="150" text-anchor="middle" class="small" fill="white">demux</text>

    <!-- File -->
    <rect x="680" y="80" width="140" height="90" fill="#4caf50" stroke="#1b5e20" stroke-width="2" rx="8"/>
    <text x="750" y="115" text-anchor="middle" class="label" fill="white">File</text>
    <text x="750" y="135" text-anchor="middle" class="small" fill="white">FFmpeg</text>
    <text x="750" y="150" text-anchor="middle" class="small" fill="white">decode</text>
  </g>

  <!-- Arrows to SOURCE RING -->
  <path d="M 150 170 L 150 210" class="arrow" stroke="#333"/>
  <path d="M 450 170 L 450 210" class="arrow" stroke="#333"/>
  <path d="M 750 170 L 750 210" class="arrow" stroke="#333"/>

  <!-- SOURCE RING - DECOUPLING BOUNDARY #1 -->
  <rect x="150" y="210" width="900" height="80" fill="#fff9c4" stroke="#f57f17" stroke-width="3" rx="8"/>
  <text x="600" y="245" text-anchor="middle" class="label" fill="#333">SOURCE RING (4096 slots)</text>
  <text x="600" y="265" text-anchor="middle" class="small" fill="#666">Lock-free SPMC: all ingest → all egress (independent rates)</text>
  <rect x="950" y="220" width="60" height="60" fill="#ff9800" stroke="#e65100" stroke-width="2" rx="4"/>
  <text x="980" y="250" text-anchor="middle" class="label" fill="white">[B#1]</text>

  <!-- Arrows to processing branches -->
  <path d="M 300 290 L 300 340" class="arrow" stroke="#333"/>
  <path d="M 450 290 L 450 340" class="arrow" stroke="#333"/>
  <path d="M 600 290 L 600 340" class="arrow" stroke="#333"/>
  <path d="M 750 290 L 750 340" class="arrow" stroke="#333"/>
  <path d="M 900 290 L 900 340" class="arrow" stroke="#333"/>

  <!-- PROCESSING BRANCHES -->
  <g id="branches">
    <!-- RTMP PASSTHROUGH -->
    <g>
      <rect x="240" y="340" width="120" height="70" fill="#2196f3" stroke="#1565c0" stroke-width="2" rx="6"/>
      <text x="300" y="370" text-anchor="middle" class="small" fill="white" font-weight="bold">RTMP</text>
      <text x="300" y="385" text-anchor="middle" class="small" fill="white">Egress</text>
      <path d="M 300 410 L 300 450" class="arrow" stroke="#2196f3"/>
      <rect x="250" y="450" width="100" height="50" fill="#81d4fa" stroke="#0277bd" stroke-width="2" rx="5"/>
      <text x="300" y="480" text-anchor="middle" class="small" fill="#333" font-weight="bold">TCP</text>
    </g>

    <!-- SRT PASSTHROUGH (complex) -->
    <g>
      <rect x="390" y="340" width="120" height="70" fill="#2196f3" stroke="#1565c0" stroke-width="2" rx="6"/>
      <text x="450" y="370" text-anchor="middle" class="small" fill="white" font-weight="bold">SRT</text>
      <text x="450" y="385" text-anchor="middle" class="small" fill="white">Egress</text>
      <path d="M 450 410 L 450 450" class="arrow" stroke="#2196f3"/>
      <rect x="390" y="450" width="120" height="50" fill="#b39ddb" stroke="#512da8" stroke-width="2" rx="5"/>
      <text x="450" y="480" text-anchor="middle" class="small" fill="#333" font-weight="bold">Ring+Queue</text>
      <path d="M 450 500 L 450 550" class="arrow" stroke="#ff6f00"/>
      <rect x="380" y="550" width="140" height="50" fill="#ffb74d" stroke="#e65100" stroke-width="2" rx="5"/>
      <text x="450" y="580" text-anchor="middle" class="small" fill="#333" font-weight="bold">srt_send()</text>
      <path d="M 450 600 L 450 650" class="arrow" stroke="#ff6f00"/>
      <rect x="390" y="650" width="120" height="30" fill="#ffcc80" stroke="#ef6c00" stroke-width="2" rx="4"/>
      <text x="450" y="669" text-anchor="middle" class="small" fill="#333">Network</text>
    </g>

    <!-- HLS (best case) -->
    <g>
      <rect x="540" y="340" width="120" height="70" fill="#2196f3" stroke="#1565c0" stroke-width="2" rx="6"/>
      <text x="600" y="370" text-anchor="middle" class="small" fill="white" font-weight="bold">HLS</text>
      <text x="600" y="385" text-anchor="middle" class="small" fill="white">Segment</text>
      <path d="M 600 410 L 600 450" class="arrow" stroke="#2196f3"/>
      <rect x="540" y="450" width="120" height="50" fill="#c8e6c9" stroke="#2e7d32" stroke-width="2" rx="5"/>
      <text x="600" y="480" text-anchor="middle" class="small" fill="#333" font-weight="bold">Mutex</text>
      <text x="600" y="495" text-anchor="middle" class="small" fill="#666">(0.17Hz)</text>
      <path d="M 600 500 L 600 550" class="arrow" stroke="#2e7d32"/>
      <rect x="540" y="550" width="120" height="50" fill="#a5d6a7" stroke="#388e3c" stroke-width="2" rx="5"/>
      <text x="600" y="580" text-anchor="middle" class="small" fill="#333" font-weight="bold">HTTP GET</text>
      <path d="M 600 600 L 600 650" class="arrow" stroke="#2e7d32"/>
      <rect x="540" y="650" width="120" height="30" fill="#c8e6c9" stroke="#2e7d32" stroke-width="2" rx="4"/>
      <text x="600" y="669" text-anchor="middle" class="small" fill="#333">Browsers</text>
    </g>

    <!-- RECORDING -->
    <g>
      <rect x="690" y="340" width="120" height="70" fill="#2196f3" stroke="#1565c0" stroke-width="2" rx="6"/>
      <text x="750" y="370" text-anchor="middle" class="small" fill="white" font-weight="bold">Record</text>
      <text x="750" y="385" text-anchor="middle" class="small" fill="white">Feeder</text>
      <path d="M 750 410 L 750 450" class="arrow" stroke="#2196f3"/>
      <rect x="690" y="450" width="120" height="50" fill="#ffccbc" stroke="#d84315" stroke-width="2" rx="5"/>
      <text x="750" y="480" text-anchor="middle" class="small" fill="#333" font-weight="bold">Memory</text>
      <text x="750" y="495" text-anchor="middle" class="small" fill="#333" font-weight="bold">Queue</text>
      <path d="M 750 500 L 750 550" class="arrow" stroke="#ff6f00"/>
      <rect x="690" y="550" width="120" height="50" fill="#ffb74d" stroke="#e65100" stroke-width="2" rx="5"/>
      <text x="750" y="580" text-anchor="middle" class="small" fill="#333" font-weight="bold">fwrite()</text>
      <path d="M 750 600 L 750 650" class="arrow" stroke="#ff6f00"/>
      <rect x="690" y="650" width="120" height="30" fill="#ffcc80" stroke="#ef6c00" stroke-width="2" rx="4"/>
      <text x="750" y="669" text-anchor="middle" class="small" fill="#333">Disk</text>
    </g>

    <!-- TRANSCODING -->
    <g>
      <rect x="840" y="340" width="120" height="70" fill="#2196f3" stroke="#1565c0" stroke-width="2" rx="6"/>
      <text x="900" y="365" text-anchor="middle" class="small" fill="white" font-weight="bold">Transcoder</text>
      <text x="900" y="385" text-anchor="middle" class="small" fill="white">Feeder</text>
      <path d="M 900 410 L 900 450" class="arrow" stroke="#2196f3"/>
      <rect x="840" y="450" width="120" height="50" fill="#ffccbc" stroke="#d84315" stroke-width="2" rx="5"/>
      <text x="900" y="480" text-anchor="middle" class="small" fill="#333" font-weight="bold">Memory</text>
      <text x="900" y="495" text-anchor="middle" class="small" fill="#333" font-weight="bold">Queue</text>
      <path d="M 900 500 L 900 550" class="arrow" stroke="#ff6f00"/>
      <rect x="840" y="550" width="120" height="50" fill="#ffb74d" stroke="#e65100" stroke-width="2" rx="5"/>
      <text x="900" y="580" text-anchor="middle" class="small" fill="#333" font-weight="bold">FFmpeg</text>
      <path d="M 900 600 L 900 650" class="arrow" stroke="#ff6f00"/>
      <rect x="840" y="650" width="120" height="30" fill="#ffcc80" stroke="#ef6c00" stroke-width="2" rx="4"/>
      <text x="900" y="669" text-anchor="middle" class="small" fill="#333">Subprocess</text>
    </g>
  </g>

  <!-- Decoupling boundary markers -->
  <g id="boundaries" opacity="0.7">
    <circle cx="1050" cy="340" r="12" fill="none" stroke="#ff9800" stroke-width="2"/>
    <text x="1050" y="348" text-anchor="middle" class="small" font-weight="bold" fill="#ff9800">B#1</text>

    <circle cx="1050" cy="520" r="12" fill="none" stroke="#ff9800" stroke-width="2"/>
    <text x="1050" y="528" text-anchor="middle" class="small" font-weight="bold" fill="#ff9800">B#2-9</text>
  </g>

  <!-- Legend -->
  <g id="legend" transform="translate(40, 730)">
    <rect x="0" y="0" width="120" height="40" fill="#4caf50" stroke="#1b5e20" stroke-width="1" rx="4"/>
    <text x="60" y="25" text-anchor="middle" class="small" fill="white" font-weight="bold">Ingest</text>

    <rect x="140" y="0" width="120" height="40" fill="#2196f3" stroke="#1565c0" stroke-width="1" rx="4"/>
    <text x="200" y="25" text-anchor="middle" class="small" fill="white" font-weight="bold">Tokio Task</text>

    <rect x="280" y="0" width="120" height="40" fill="#ffb74d" stroke="#e65100" stroke-width="1" rx="4"/>
    <text x="340" y="25" text-anchor="middle" class="small" fill="#333" font-weight="bold">OS Thread</text>

    <rect x="420" y="0" width="120" height="40" fill="#fff9c4" stroke="#f57f17" stroke-width="1" rx="4"/>
    <text x="480" y="25" text-anchor="middle" class="small" fill="#333" font-weight="bold">Ring/Queue</text>

    <circle cx="600" cy="20" r="8" fill="none" stroke="#ff9800" stroke-width="2"/>
    <text x="630" y="25" class="small" fill="#ff9800" font-weight="bold">Boundary</text>
  </g>
</svg>