<svg xmlns="http://www.w3.org/2000/svg" viewBox="0 0 1000 700">
  <defs>
    <style>
      text { font-family: sans-serif; }
      .title { font-size: 28px; font-weight: bold; }
      .label { font-size: 13px; font-weight: bold; }
      .small { font-size: 11px; }
      .arrow { stroke-width: 2.5; fill: none; marker-end: url(#arrowhead); }
      .boundary { stroke-width: 3; stroke-dasharray: 5,5; fill: none; }
    </style>
    <marker id="arrowhead" markerWidth="10" markerHeight="10" refX="9" refY="3" orient="auto">
      <polygon points="0 0, 10 3, 0 6" fill="#333" />
    </marker>
  </defs>

  <text x="500" y="35" text-anchor="middle" class="title">Thread Architecture</text>

  <!-- TOKIO SECTION (left side) -->
  <rect x="30" y="70" width="420" height="600" fill="#e3f2fd" stroke="#1976d2" stroke-width="3" rx="10"/>
  <text x="240" y="100" text-anchor="middle" class="label" fill="#1976d2">TOKIO ASYNC RUNTIME</text>

  <!-- Tasks in Tokio -->
  <g id="tokio-tasks">
    <!-- Ingest -->
    <circle cx="100" cy="180" r="35" fill="#2196f3" stroke="#1565c0" stroke-width="2"/>
    <text x="100" y="185" text-anchor="middle" class="small" fill="white" font-weight="bold">RTMP</text>

    <circle cx="240" cy="180" r="35" fill="#2196f3" stroke="#1565c0" stroke-width="2"/>
    <text x="240" y="185" text-anchor="middle" class="small" fill="white" font-weight="bold">SRT</text>

    <circle cx="380" cy="180" r="35" fill="#2196f3" stroke="#1565c0" stroke-width="2"/>
    <text x="380" y="185" text-anchor="middle" class="small" fill="white" font-weight="bold">File</text>

    <!-- Shared rings (data structures) -->
    <rect x="60" y="260" width="320" height="60" fill="#fff9c4" stroke="#f57f17" stroke-width="2" rx="5"/>
    <text x="220" y="285" text-anchor="middle" class="label" fill="#333">SOURCE RING (lock-free)</text>
    <text x="220" y="305" text-anchor="middle" class="small" fill="#666">shared across all consumers</text>

    <!-- Egress tasks -->
    <circle cx="80" cy="370" r="30" fill="#4caf50" stroke="#2e7d32" stroke-width="2"/>
    <text x="80" y="375" text-anchor="middle" class="small" fill="white">RTMP</text>

    <circle cx="180" cy="370" r="30" fill="#4caf50" stroke="#2e7d32" stroke-width="2"/>
    <text x="180" y="375" text-anchor="middle" class="small" fill="white">SRT</text>

    <circle cx="280" cy="370" r="30" fill="#4caf50" stroke="#2e7d32" stroke-width="2"/>
    <text x="280" y="375" text-anchor="middle" class="small" fill="white">HLS</text>

    <circle cx="380" cy="370" r="30" fill="#4caf50" stroke="#2e7d32" stroke-width="2"/>
    <text x="380" y="375" text-anchor="middle" class="small" fill="white">Audio</text>

    <!-- Transcoder feeder tasks -->
    <circle cx="120" cy="480" r="25" fill="#ff9800" stroke="#e65100" stroke-width="2"/>
    <text x="120" y="485" text-anchor="middle" class="small" fill="white" font-weight="bold">X</text>

    <circle cx="220" cy="480" r="25" fill="#ff9800" stroke="#e65100" stroke-width="2"/>
    <text x="220" y="485" text-anchor="middle" class="small" fill="white" font-weight="bold">X</text>

    <circle cx="320" cy="480" r="25" fill="#ff9800" stroke="#e65100" stroke-width="2"/>
    <text x="320" y="485" text-anchor="middle" class="small" fill="white" font-weight="bold">X</text>

    <!-- Output rings -->
    <rect x="60" y="540" width="320" height="50" fill="#f3e5f5" stroke="#7b1fa2" stroke-width="2" rx="5"/>
    <text x="220" y="565" text-anchor="middle" class="label" fill="#333">OUTPUT RINGS (transcoded)</text>

    <!-- Flow arrows -->
    <path d="M 100 215 L 100 260" class="arrow" stroke="#1976d2"/>
    <path d="M 240 215 L 240 260" class="arrow" stroke="#1976d2"/>
    <path d="M 380 215 L 380 260" class="arrow" stroke="#1976d2"/>

    <path d="M 220 320 Q 220 340 100 340 L 80 340" class="arrow" stroke="#2e7d32"/>
    <path d="M 220 320 Q 220 340 180 340 L 180 340" class="arrow" stroke="#2e7d32"/>
    <path d="M 220 320 Q 220 340 280 340 L 280 340" class="arrow" stroke="#2e7d32"/>
    <path d="M 220 320 Q 220 340 380 340 L 380 340" class="arrow" stroke="#2e7d32"/>

    <path d="M 220 400 L 220 540" class="arrow" stroke="#ff9800"/>
  </g>

  <!-- OS THREADS SECTION (right side) -->
  <rect x="520" y="70" width="420" height="600" fill="#ffe0b2" stroke="#e65100" stroke-width="3" rx="10"/>
  <text x="730" y="100" text-anchor="middle" class="label" fill="#e65100">OS THREADS (blocking workers)</text>

  <!-- Thread pools -->
  <g id="os-threads">
    <!-- SRT senders -->
    <circle cx="580" cy="200" r="35" fill="#ff6f00" stroke="#bf360c" stroke-width="2"/>
    <text x="580" y="205" text-anchor="middle" class="small" fill="white" font-weight="bold">SRT</text>

    <circle cx="640" cy="200" r="35" fill="#ff6f00" stroke="#bf360c" stroke-width="2"/>
    <text x="640" y="205" text-anchor="middle" class="small" fill="white" font-weight="bold">SRT</text>

    <circle cx="700" cy="200" r="35" fill="#ff6f00" stroke="#bf360c" stroke-width="2"/>
    <text x="700" y="205" text-anchor="middle" class="small" fill="white" font-weight="bold">SRT</text>

    <!-- FFmpeg -->
    <rect x="760" y="165" width="140" height="70" fill="#ff6f00" stroke="#bf360c" stroke-width="2" rx="5"/>
    <text x="830" y="205" text-anchor="middle" class="small" fill="white" font-weight="bold">FFmpeg</text>

    <!-- MemoryQueues (data structures in middle) -->
    <rect x="550" y="310" width="350" height="50" fill="#ffccbc" stroke="#d84315" stroke-width="2" rx="5"/>
    <text x="725" y="335" text-anchor="middle" class="label" fill="#333">MemoryQueue (Condvar + VecDeque)</text>

    <text x="550" y="380" class="small" fill="#333">• SRT sender threads</text>
    <text x="550" y="398" class="small" fill="#333">• FFmpeg I/O bridge</text>
    <text x="550" y="416" class="small" fill="#333">• Recording writer threads</text>
    <text x="550" y="434" class="small" fill="#333">• Codec converter threads</text>

    <!-- Recording threads -->
    <circle cx="590" cy="500" r="30" fill="#ff6f00" stroke="#bf360c" stroke-width="2"/>
    <text x="590" y="505" text-anchor="middle" class="small" fill="white">Write</text>

    <circle cx="680" cy="500" r="30" fill="#ff6f00" stroke="#bf360c" stroke-width="2"/>
    <text x="680" y="505" text-anchor="middle" class="small" fill="white">Write</text>

    <!-- Codec converters -->
    <circle cx="800" cy="500" r="30" fill="#ff6f00" stroke="#bf360c" stroke-width="2"/>
    <text x="800" y="505" text-anchor="middle" class="small" fill="white">H265</text>

    <!-- Socket/network -->
    <rect x="560" y="590" width="320" height="50" fill="#ffccbc" stroke="#d84315" stroke-width="2" rx="5"/>
    <text x="720" y="615" text-anchor="middle" class="label" fill="#333">Network/Disk (blocking)</text>

    <!-- Flow arrows -->
    <path d="M 580 235 L 580 310" class="arrow" stroke="#ff6f00"/>
    <path d="M 640 235 L 640 310" class="arrow" stroke="#ff6f00"/>
    <path d="M 700 235 L 700 310" class="arrow" stroke="#ff6f00"/>
    <path d="M 830 235 L 830 310" class="arrow" stroke="#ff6f00"/>

    <path d="M 725 360 Q 725 420 590 470" class="arrow" stroke="#ff6f00"/>
    <path d="M 725 360 Q 725 420 680 470" class="arrow" stroke="#ff6f00"/>
    <path d="M 725 360 Q 725 420 800 470" class="arrow" stroke="#ff6f00"/>

    <path d="M 590 530 L 590 590" class="arrow" stroke="#ff6f00"/>
    <path d="M 680 530 L 680 590" class="arrow" stroke="#ff6f00"/>
    <path d="M 800 530 L 800 590" class="arrow" stroke="#ff6f00"/>
  </g>

  <!-- Connection between sections -->
  <line x1="450" y1="320" x2="520" y2="320" stroke="#d32f2f" stroke-width="3" stroke-dasharray="5,5"/>
  <text x="485" y="310" text-anchor="middle" class="small" fill="#d32f2f" font-weight="bold">Boundary</text>
  <text x="485" y="340" text-anchor="middle" class="small" fill="#d32f2f">async ↔ blocking</text>

  <!-- Legend -->
  <g id="legend" transform="translate(30, 680)">
    <circle cx="10" cy="0" r="6" fill="#2196f3"/>
    <text x="25" y="4" class="small">Ingest task</text>

    <circle cx="130" cy="0" r="6" fill="#4caf50"/>
    <text x="145" y="4" class="small">Egress task</text>

    <circle cx="270" cy="0" r="6" fill="#ff6f00"/>
    <text x="285" y="4" class="small">OS thread</text>

    <rect x="430" y="-6" width="30" height="12" fill="#fff9c4" stroke="#f57f17" stroke-width="1"/>
    <text x="465" y="4" class="small">Ring/Queue</text>
  </g>
</svg>