<svg viewBox="0 0 680 945" xmlns="http://www.w3.org/2000/svg" role="img" font-family="ui-monospace,SFMono-Regular,Menlo,Monaco,Consolas,monospace" font-size="12">
  <title>Unit-test line coverage by module (June 29, 2026)</title>
  <desc>Horizontal bar chart showing line coverage percentage for 35 source files, ranging from 0% (db, h264_transcoder, logging, runtime_info) to 100% (engine_registries, pipe_metrics). Overall coverage is 54.3%.</desc>

  <style>
    rect.bar-high   { fill: #1baf7a; }
    rect.bar-mid    { fill: #eda100; }
    rect.bar-low    { fill: #e34948; }
    text.label      { fill: #52514e; font-size: 11px; }
    text.pct        { fill: #0b0b0b; font-size: 11px; font-weight: 500; }
    text.pct-zero   { fill: #e34948; font-size: 11px; font-weight: 500; }
    text.title      { fill: #0b0b0b; font-size: 14px; font-weight: 500; }
    text.subtitle   { fill: #52514e; font-size: 12px; }
    line.grid       { stroke: #e1e0d9; stroke-width: 0.5; }
    text.axis       { fill: #898781; font-size: 10px; }
    text.legend     { fill: #52514e; font-size: 11px; }
    rect.legend-box { rx: 2; ry: 2; }
  </style>

  <text x="160" y="22" class="title">Unit-test line coverage by module</text>
  <text x="160" y="40" class="subtitle">cargo llvm-cov — lib tests only — June 29, 2026 — overall 54.3%</text>

  <line x1="160" y1="55" x2="160" y2="895" class="grid" stroke="#c3c2b7" stroke-width="0.8"/>
  <line x1="277.5" y1="55" x2="277.5" y2="895" class="grid"/>
  <line x1="395" y1="55" x2="395" y2="895" class="grid"/>
  <line x1="512.5" y1="55" x2="512.5" y2="895" class="grid"/>
  <line x1="630" y1="55" x2="630" y2="895" class="grid" stroke="#c3c2b7" stroke-width="0.8"/>

  <text x="160" y="907" class="axis" text-anchor="middle">0%</text>
  <text x="277.5" y="907" class="axis" text-anchor="middle">25%</text>
  <text x="395" y="907" class="axis" text-anchor="middle">50%</text>
  <text x="512.5" y="907" class="axis" text-anchor="middle">75%</text>
  <text x="630" y="907" class="axis" text-anchor="middle">100%</text>

  <text x="155" y="68" class="label" text-anchor="end">engine_registries</text>
  <rect x="160" y="55" width="470" height="16" class="bar-high"/>
  <text x="636" y="68" class="pct">100.0%</text>

  <text x="155" y="92" class="label" text-anchor="end">pipe_metrics</text>
  <rect x="160" y="79" width="470" height="16" class="bar-high"/>
  <text x="636" y="92" class="pct">100.0%</text>

  <text x="155" y="116" class="label" text-anchor="end">tcp_stats</text>
  <rect x="160" y="103" width="463" height="16" class="bar-high"/>
  <text x="636" y="116" class="pct">98.5%</text>

  <text x="155" y="140" class="label" text-anchor="end">alerts</text>
  <rect x="160" y="127" width="460" height="16" class="bar-high"/>
  <text x="636" y="140" class="pct">97.9%</text>

  <text x="155" y="164" class="label" text-anchor="end">events</text>
  <rect x="160" y="151" width="453" height="16" class="bar-high"/>
  <text x="636" y="164" class="pct">96.5%</text>

  <text x="155" y="188" class="label" text-anchor="end">security</text>
  <rect x="160" y="175" width="449" height="16" class="bar-high"/>
  <text x="636" y="188" class="pct">95.5%</text>

  <text x="155" y="212" class="label" text-anchor="end">feeder</text>
  <rect x="160" y="199" width="447" height="16" class="bar-high"/>
  <text x="636" y="212" class="pct">95.1%</text>

  <text x="155" y="236" class="label" text-anchor="end">ring_buffer</text>
  <rect x="160" y="223" width="446" height="16" class="bar-high"/>
  <text x="636" y="236" class="pct">94.9%</text>

  <text x="155" y="260" class="label" text-anchor="end">ts_chunk_ring</text>
  <rect x="160" y="247" width="446" height="16" class="bar-high"/>
  <text x="636" y="260" class="pct">94.8%</text>

  <text x="155" y="284" class="label" text-anchor="end">file_ingest</text>
  <rect x="160" y="271" width="434" height="16" class="bar-high"/>
  <text x="636" y="284" class="pct">92.3%</text>

  <text x="155" y="308" class="label" text-anchor="end">codec</text>
  <rect x="160" y="295" width="425" height="16" class="bar-high"/>
  <text x="636" y="308" class="pct">90.4%</text>

  <text x="155" y="332" class="label" text-anchor="end">hls_upload</text>
  <rect x="160" y="319" width="419" height="16" class="bar-high"/>
  <text x="636" y="332" class="pct">89.2%</text>

  <text x="155" y="356" class="label" text-anchor="end">planner/backend_policy</text>
  <rect x="160" y="343" width="417" height="16" class="bar-high"/>
  <text x="636" y="356" class="pct">88.7%</text>

  <text x="155" y="380" class="label" text-anchor="end">profiles</text>
  <rect x="160" y="367" width="402" height="16" class="bar-high"/>
  <text x="636" y="380" class="pct">85.6%</text>

  <text x="155" y="404" class="label" text-anchor="end">types</text>
  <rect x="160" y="391" width="400" height="16" class="bar-high"/>
  <text x="636" y="404" class="pct">85.2%</text>

  <text x="155" y="428" class="label" text-anchor="end">timing</text>
  <rect x="160" y="415" width="400" height="16" class="bar-high"/>
  <text x="636" y="428" class="pct">85.1%</text>

  <text x="155" y="452" class="label" text-anchor="end">stage_metrics</text>
  <rect x="160" y="439" width="395" height="16" class="bar-high"/>
  <text x="636" y="452" class="pct">84.1%</text>

  <text x="155" y="476" class="label" text-anchor="end">mpegts</text>
  <rect x="160" y="463" width="390" height="16" class="bar-high"/>
  <text x="636" y="476" class="pct">83.0%</text>

  <text x="155" y="500" class="label" text-anchor="end">domain/stage</text>
  <rect x="160" y="487" width="373" height="16" class="bar-mid"/>
  <text x="636" y="500" class="pct">79.3%</text>

  <text x="155" y="524" class="label" text-anchor="end">avio</text>
  <rect x="160" y="511" width="363" height="16" class="bar-mid"/>
  <text x="636" y="524" class="pct">77.3%</text>

  <text x="155" y="548" class="label" text-anchor="end">engine</text>
  <rect x="160" y="535" width="363" height="16" class="bar-mid"/>
  <text x="636" y="548" class="pct">77.2%</text>

  <text x="155" y="572" class="label" text-anchor="end">hls</text>
  <rect x="160" y="559" width="356" height="16" class="bar-mid"/>
  <text x="636" y="572" class="pct">75.8%</text>

  <text x="155" y="596" class="label" text-anchor="end">external_transcoder</text>
  <rect x="160" y="583" width="294" height="16" class="bar-mid"/>
  <text x="636" y="596" class="pct">62.7%</text>

  <text x="155" y="620" class="label" text-anchor="end">recording</text>
  <rect x="160" y="607" width="294" height="16" class="bar-mid"/>
  <text x="636" y="620" class="pct">62.5%</text>

  <text x="155" y="644" class="label" text-anchor="end">ffmpeg_extract</text>
  <rect x="160" y="631" width="284" height="16" class="bar-mid"/>
  <text x="636" y="644" class="pct">60.5%</text>

  <text x="155" y="668" class="label" text-anchor="end">srt</text>
  <rect x="160" y="655" width="225" height="16" class="bar-low"/>
  <text x="636" y="668" class="pct">47.9%</text>

  <text x="155" y="692" class="label" text-anchor="end">transcoder</text>
  <rect x="160" y="679" width="208" height="16" class="bar-low"/>
  <text x="636" y="692" class="pct">44.3%</text>

  <text x="155" y="716" class="label" text-anchor="end">rtmp</text>
  <rect x="160" y="703" width="182" height="16" class="bar-low"/>
  <text x="636" y="716" class="pct">38.8%</text>

  <text x="155" y="740" class="label" text-anchor="end">api</text>
  <rect x="160" y="727" width="46" height="16" class="bar-low"/>
  <text x="636" y="740" class="pct">9.7%</text>

  <text x="155" y="764" class="label" text-anchor="end">lib</text>
  <rect x="160" y="751" width="43" height="16" class="bar-low"/>
  <text x="636" y="764" class="pct">9.2%</text>

  <text x="155" y="788" class="label" text-anchor="end">diag</text>
  <rect x="160" y="775" width="20" height="16" class="bar-low"/>
  <text x="636" y="788" class="pct">4.3%</text>

  <text x="155" y="812" class="label" text-anchor="end">db</text>
  <text x="636" y="812" class="pct-zero">0.0%</text>

  <text x="155" y="836" class="label" text-anchor="end">h264_transcoder</text>
  <text x="636" y="836" class="pct-zero">0.0%</text>

  <text x="155" y="860" class="label" text-anchor="end">logging</text>
  <text x="636" y="860" class="pct-zero">0.0%</text>

  <text x="155" y="884" class="label" text-anchor="end">runtime_info</text>
  <text x="636" y="884" class="pct-zero">0.0%</text>

  <rect x="160" y="915" width="10" height="10" class="bar-high legend-box"/>
  <text x="175" y="925" class="legend">≥80% (18 files)</text>
  <rect x="295" y="915" width="10" height="10" class="bar-mid legend-box"/>
  <text x="310" y="925" class="legend">50–79% (7 files)</text>
  <rect x="430" y="915" width="10" height="10" class="bar-low legend-box"/>
  <text x="445" y="925" class="legend">&lt;50% (10 files)</text>
</svg>
